<svg width="48" height="37" viewBox="0 0 48 37" fill="none" xmlns="http://www.w3.org/2000/svg">
<path d="M37.9814 7.6171L30.1933 11.4275L34.9405 13.2491C35.9182 13.6208 37.0818 14.1004 37.5093 15.2565C37.9368 16.4126 37.3011 17.487 36.7323 18.3978L34.1301 22.4572C31.0545 27.2726 27.9765 32.0843 24.8959 36.8922C24.8959 35.4052 24.8959 33.9182 24.8959 32.4312C26.0756 28.7137 27.223 24.9963 28.3383 21.2788C28.653 20.2181 28.9653 19.1574 29.2751 18.0966C29.461 17.4572 29.342 17.0743 28.7249 16.7695L23.9888 14.4387L19.2714 16.7658C18.6543 17.0706 18.5279 17.4535 18.7212 18.0929C19.0285 19.1561 19.3408 20.2169 19.658 21.2751C20.7683 25.0074 21.9157 28.7249 23.1004 32.4275C23.1004 33.9145 23.1004 35.4015 23.1004 36.8885C20.0149 32.0805 16.9368 27.2689 13.8662 22.4535L11.2639 18.3941C10.6914 17.4981 10.0483 16.4387 10.487 15.2528C10.9257 14.0669 12.0781 13.6208 13.0558 13.2454L17.803 11.4238L10.0149 7.61339L12.4424 11.684L8.42751 13.2268C5.61462 8.82279 2.80545 4.41388 0 0C7.99257 2.83271 15.9851 5.69145 24 8.43122C32.026 5.69145 40.0074 2.83643 48 0C45.1995 4.40892 42.3916 8.81289 39.5762 13.2119L35.5613 11.6691L37.9888 7.59851" fill="black"/>
</svg>
